<?xml version="1.0" encoding="utf-8"?>
<!-- Generator: Adobe Illustrator 25.0.1, SVG Export Plug-In . SVG Version: 6.00 Build 0)  -->
<svg version="1.1" id="Layer_1" xmlns="http://www.w3.org/2000/svg" xmlns:xlink="http://www.w3.org/1999/xlink" x="0px" y="0px"
	 viewBox="0 0 750 500" style="enable-background:new 0 0 750 500;" xml:space="preserve">
<style type="text/css">
	.st0{fill:#CBB930;}
	.st1{fill:#FFFFFF;}
	.st2{font-family:'Raleway-Regular';}
	.st3{font-size:257.8835px;}
</style>
<rect y="0" class="st0" width="750" height="500"/>
<g>
	<path class="st1" d="M286.7,158.5h15.2l76.1,183h-19.1l-23.7-57.2h-82.3l-23.5,57.2h-19.3L286.7,158.5z M331,270.1l-36.9-90.5
		l-37.4,90.5H331z"/>
	<path class="st1" d="M404.3,341.5v-183h77.4c7.9,0,15.2,1.7,21.8,5c6.6,3.4,12.3,7.7,17.2,13.2c4.8,5.4,8.6,11.6,11.2,18.4
		c2.7,6.9,4,13.8,4,20.9c0,6.7-1,13.1-3,19.2c-2,6.1-4.7,11.6-8.3,16.5c-3.5,4.9-7.8,9-12.8,12.4s-10.6,5.6-16.8,6.8l44.9,70.7
		h-20.4l-43-67.6h-54.2v67.6L404.3,341.5L404.3,341.5z M422.3,258h59.8c5.3,0,10.2-1.2,14.6-3.5c4.4-2.3,8.1-5.5,11.2-9.4
		c3.1-4,5.5-8.4,7.2-13.4c1.7-5,2.6-10.2,2.6-15.7s-1-10.8-3-15.9c-2-5.1-4.6-9.5-8-13.3s-7.3-6.8-11.9-9s-9.3-3.4-14.3-3.4h-58.3
		V258H422.3z"/>
</g>
<text transform="matrix(1 0 0 1 190.9341 -45.5107)" class="st1 st2 st3">EN</text>
</svg>
