<?xml version="1.0" encoding="utf-8"?>
<!-- Generator: Adobe Illustrator 25.0.1, SVG Export Plug-In . SVG Version: 6.00 Build 0)  -->
<svg version="1.1" id="Layer_1" xmlns="http://www.w3.org/2000/svg" xmlns:xlink="http://www.w3.org/1999/xlink" x="0px" y="0px"
	 viewBox="0 0 750 500" style="enable-background:new 0 0 750 500;" xml:space="preserve">
<style type="text/css">
	.st0{fill:#998826;}
	.st1{fill:#FFFFFF;}
</style>
<rect y="0" class="st0" width="750" height="500"/>
<g>
	<path class="st1" d="M-268.3-280.5h15.2L-177-97.4h-19.1l-23.7-57.2h-82.3l-23.5,57.2h-19.3L-268.3-280.5z M-224-168.9l-36.9-90.5
		l-37.4,90.5H-224z"/>
	<path class="st1" d="M-150.7-97.4v-183.1h77.4c7.9,0,15.2,1.7,21.8,5c6.6,3.4,12.3,7.7,17.2,13.2c4.8,5.4,8.6,11.6,11.2,18.4
		c2.7,6.9,4,13.8,4,20.9c0,6.7-1,13.1-3,19.2c-2,6.1-4.7,11.6-8.3,16.5c-3.5,4.9-7.8,9-12.8,12.4s-10.6,5.6-16.8,6.8l44.9,70.7
		h-20.4l-43-67.6h-54.2v67.6H-150.7z M-132.7-181h59.8c5.3,0,10.2-1.2,14.6-3.5s8.1-5.5,11.2-9.4c3.1-4,5.5-8.4,7.2-13.4
		s2.6-10.2,2.6-15.7s-1-10.8-3-15.9c-2-5.1-4.6-9.5-8-13.3s-7.3-6.8-11.9-9s-9.3-3.4-14.3-3.4h-58.3v83.6L-132.7-181L-132.7-181z"/>
</g>
<g>
	<path class="st1" d="M342.9,325.6v16h-123V158.5h120.7v16H237.9v66h89.5v15.2h-89.5v69.9H342.9z"/>
	<path class="st1" d="M395,192v149.6h-18.1V158.5h13.9L512,310.9V158.7h18.1v182.8h-15.7L395,192z"/>
</g>
</svg>
