<?xml version="1.0" encoding="utf-8"?>
<!-- Generator: Adobe Illustrator 25.0.1, SVG Export Plug-In . SVG Version: 6.00 Build 0)  -->
<svg version="1.1" id="Layer_1" xmlns="http://www.w3.org/2000/svg" xmlns:xlink="http://www.w3.org/1999/xlink" x="0px" y="0px"
	 viewBox="0 0 36 36" style="enable-background:new 0 0 36 36;" xml:space="preserve">
<style type="text/css">
	.st0{fill:#A5A5A5;}
</style>
<g>
	<path class="st0" d="M28.6,15.3c-0.2,0-0.5-0.1-0.7-0.2c0-2.2,0-4.4,0-6.6c0-2.2-1.1-3.3-3.3-3.3c-6.8,0-13.6,0-20.4,0
		C2.1,5.3,1,6.4,1,8.5c0,4.4,0.1,8.8,0,13.2c0,1.9,1.1,3.4,3.4,3.4c4.9-0.1,9.7,0,14.6,0c0.5,0,0.8,0.1,1,0.7
		c1.6,4.3,6.6,6.3,10.7,4.2c0.7-0.3,0.9-0.7,0.7-1.2c-0.3-0.6-0.8-0.4-1.3-0.1c-1.1,0.6-2.2,0.7-3.4,0.7c-3.3-0.2-6.1-3.3-5.8-6.6
		c0.2-3.6,3.3-6.4,6.7-6.1c3.7,0.3,6.1,3,6,6.8c0,1-0.5,1.6-1.4,1.6c-0.9,0-1.4-0.6-1.4-1.6c0-0.8,0-1.6,0-2.5c0-0.7-0.3-0.9-1-0.8
		c-0.2,0-0.5-0.1-0.6-0.2c-1.2-0.8-2.8-0.8-3.9,0c-1.3,0.9-1.8,2.1-1.5,3.6c0.3,1.5,1.2,2.4,2.7,2.8c1.3,0.3,2.4-0.2,3.4-1.1
		c0.2,0.2,0.3,0.3,0.4,0.4c0.9,0.7,1.8,1,2.9,0.6c1.1-0.4,1.7-1.2,1.8-2.3C35.4,19.9,32.7,16.1,28.6,15.3z M4,6.7c7,0,13.9,0,20.9,0
		C25,6.8,25,6.9,25.1,6.9C25,7,24.8,7,24.6,7.1c-3.1,2.5-6.2,5.1-9.3,7.6c-0.6,0.5-1.1,0.6-1.7,0.1c-3.2-2.6-6.3-5.2-9.5-7.8
		C4.1,7,4,7,3.9,6.9C3.9,6.9,4,6.8,4,6.7z M26.4,15.2c-2,0.3-3.8,1.1-5.2,2.8c-1.3,1.6-1.9,3.5-1.8,5.7c-0.3,0-0.5,0-0.8,0
		c-4.8,0-9.5,0-14.3,0c-1.5,0-1.9-0.4-1.9-1.9c0-4.4,0-8.8,0-13.2c0-0.3,0-0.6,0.1-1.1c0.3,0.3,0.5,0.4,0.8,0.6
		c3.1,2.6,6.3,5.2,9.4,7.7c1.2,1,2.3,1,3.5,0c3.2-2.6,6.4-5.3,9.6-7.9c0.1-0.1,0.3-0.2,0.5-0.4C26.4,10.2,26.4,12.7,26.4,15.2z
		 M27.2,25c-1.2,0-2.1-0.9-2.1-2.1c0-1.1,1-2.1,2.1-2.1c1.2,0,2.1,0.9,2.1,2.1C29.3,24.1,28.4,25,27.2,25z"/>
</g>
</svg>
