<?xml version="1.0" encoding="utf-8"?>
<!-- Generator: Adobe Illustrator 25.0.1, SVG Export Plug-In . SVG Version: 6.00 Build 0)  -->
<svg version="1.1" id="Layer_1" xmlns="http://www.w3.org/2000/svg" xmlns:xlink="http://www.w3.org/1999/xlink" x="0px" y="0px"
	 viewBox="0 0 28 28" style="enable-background:new 0 0 28 28;" xml:space="preserve">
<style type="text/css">
	.st0{fill:#C7B84A;}
</style>
<path class="st0" d="M5.9,1.9c-2.2,0-4,1.8-4,4v16.1c0,2.2,1.8,4,4,4h16.1c2.2,0,4-1.8,4-4V5.9c0-2.2-1.8-4-4-4H5.9z M5.9,3h16.1
	C23.7,3,25,4.3,25,5.9v16.1c0,1.6-1.3,2.9-2.9,2.9H5.9C4.3,25,3,23.7,3,22.1V5.9C3,4.3,4.3,3,5.9,3z M7.1,7.1l5.3,7.6l-5.4,6.3h1.4
	l4.6-5.4l3.8,5.4h4.6l-5.9-8.3l4.7-5.5h-1.4L15,11.7l-3.3-4.6H7.1z M9.3,8.2h1.8l8.1,11.5h-1.8L9.3,8.2z"/>
</svg>
